<svg xmlns="http://www.w3.org/2000/svg" xmlns:xlink="http://www.w3.org/1999/xlink" version="1.1" class="marks" width="375" height="324" viewBox="0 0 375 324"><rect width="375" height="324" fill="#efefef"/><g fill="none" stroke-miterlimit="10" transform="translate(40,7)"><g class="mark-group role-frame root" role="graphics-object" aria-roledescription="group mark container"><g transform="translate(0,0)"><path class="background" aria-hidden="true" d="M0,0h0v0h0Z"/><g><g class="mark-group role-scope concat_0_group" role="graphics-object" aria-roledescription="group mark container"><g transform="translate(0,0)"><path class="background" aria-hidden="true" d="M0.5,0.5h300v250h-300Z" stroke="#ddd"/><g><g class="mark-group role-axis" aria-hidden="true"><g transform="translate(0.5,0.5)"><path class="background" aria-hidden="true" d="M0,0h0v0h0Z" pointer-events="none"/><g><g class="mark-rule role-axis-grid" pointer-events="none"><line transform="translate(0,232)" x2="300" y2="0" stroke="#ddd" stroke-width="1" opacity="1"/><line transform="translate(0,196)" x2="300" y2="0" stroke="#ddd" stroke-width="1" opacity="1"/><line transform="translate(0,161)" x2="300" y2="0" stroke="#ddd" stroke-width="1" opacity="1"/><line transform="translate(0,125)" x2="300" y2="0" stroke="#ddd" stroke-width="1" opacity="1"/><line transform="translate(0,89)" x2="300" y2="0" stroke="#ddd" stroke-width="1" opacity="1"/><line transform="translate(0,54)" x2="300" y2="0" stroke="#ddd" stroke-width="1" opacity="1"/><line transform="translate(0,18)" x2="300" y2="0" stroke="#ddd" stroke-width="1" opacity="1"/></g></g><path class="foreground" aria-hidden="true" d="" pointer-events="none" display="none"/></g></g><g class="mark-group role-axis" role="graphics-symbol" aria-roledescription="axis" aria-label="X-axis titled 'Years since Democratization' for a discrete scale with 21 values: -10, -9, -8, -7, -6, ending with 10"><g transform="translate(0.5,250.5)"><path class="background" aria-hidden="true" d="M0,0h0v0h0Z" pointer-events="none"/><g><g class="mark-rule role-axis-tick" pointer-events="none"><line transform="translate(7,0)" x2="0" y2="5" stroke="#888" stroke-width="1" opacity="1"/><line transform="translate(21,0)" x2="0" y2="5" stroke="#888" stroke-width="1" opacity="1"/><line transform="translate(35,0)" x2="0" y2="5" stroke="#888" stroke-width="1" opacity="1"/><line transform="translate(50,0)" x2="0" y2="5" stroke="#888" stroke-width="1" opacity="1"/><line transform="translate(64,0)" x2="0" y2="5" stroke="#888" stroke-width="1" opacity="1"/><line transform="translate(78,0)" x2="0" y2="5" stroke="#888" stroke-width="1" opacity="1"/><line transform="translate(92,0)" x2="0" y2="5" stroke="#888" stroke-width="1" opacity="1"/><line transform="translate(107,0)" x2="0" y2="5" stroke="#888" stroke-width="1" opacity="1"/><line transform="translate(121,0)" x2="0" y2="5" stroke="#888" stroke-width="1" opacity="1"/><line transform="translate(135,0)" x2="0" y2="5" stroke="#888" stroke-width="1" opacity="1"/><line transform="translate(150,0)" x2="0" y2="5" stroke="#888" stroke-width="1" opacity="1"/><line transform="translate(164,0)" x2="0" y2="5" stroke="#888" stroke-width="1" opacity="1"/><line transform="translate(178,0)" x2="0" y2="5" stroke="#888" stroke-width="1" opacity="1"/><line transform="translate(192,0)" x2="0" y2="5" stroke="#888" stroke-width="1" opacity="1"/><line transform="translate(207,0)" x2="0" y2="5" stroke="#888" stroke-width="1" opacity="1"/><line transform="translate(221,0)" x2="0" y2="5" stroke="#888" stroke-width="1" opacity="1"/><line transform="translate(235,0)" x2="0" y2="5" stroke="#888" stroke-width="1" opacity="1"/><line transform="translate(250,0)" x2="0" y2="5" stroke="#888" stroke-width="1" opacity="1"/><line transform="translate(264,0)" x2="0" y2="5" stroke="#888" stroke-width="1" opacity="1"/><line transform="translate(278,0)" x2="0" y2="5" stroke="#888" stroke-width="1" opacity="1"/><line transform="translate(292,0)" x2="0" y2="5" stroke="#888" stroke-width="1" opacity="1"/></g><g class="mark-text role-axis-label" pointer-events="none"><text text-anchor="end" transform="translate(6.642857142857143,7) rotate(270) translate(0,3)" font-family="sans-serif" font-size="10px" fill="#000" opacity="1">-10</text><text text-anchor="end" transform="translate(20.92857142857143,7) rotate(270) translate(0,3)" font-family="sans-serif" font-size="10px" fill="#000" opacity="1">-9</text><text text-anchor="end" transform="translate(35.214285714285715,7) rotate(270) translate(0,3)" font-family="sans-serif" font-size="10px" fill="#000" opacity="1">-8</text><text text-anchor="end" transform="translate(49.50000000000001,7) rotate(270) translate(0,3)" font-family="sans-serif" font-size="10px" fill="#000" opacity="1">-7</text><text text-anchor="end" transform="translate(63.78571428571429,7) rotate(270) translate(0,3)" font-family="sans-serif" font-size="10px" fill="#000" opacity="1">-6</text><text text-anchor="end" transform="translate(78.07142857142857,7) rotate(270) translate(0,3)" font-family="sans-serif" font-size="10px" fill="#000" opacity="1">-5</text><text text-anchor="end" transform="translate(92.35714285714286,7) rotate(270) translate(0,3)" font-family="sans-serif" font-size="10px" fill="#000" opacity="1">-4</text><text text-anchor="end" transform="translate(106.64285714285714,7) rotate(270) translate(0,3)" font-family="sans-serif" font-size="10px" fill="#000" opacity="1">-3</text><text text-anchor="end" transform="translate(120.92857142857143,7) rotate(270) translate(0,3)" font-family="sans-serif" font-size="10px" fill="#000" opacity="1">-2</text><text text-anchor="end" transform="translate(135.21428571428572,7) rotate(270) translate(0,3)" font-family="sans-serif" font-size="10px" fill="#000" opacity="1">-1</text><text text-anchor="end" transform="translate(149.5,7) rotate(270) translate(0,3)" font-family="sans-serif" font-size="10px" fill="#000" opacity="1">0</text><text text-anchor="end" transform="translate(163.78571428571428,7) rotate(270) translate(0,3)" font-family="sans-serif" font-size="10px" fill="#000" opacity="1">1</text><text text-anchor="end" transform="translate(178.07142857142858,7) rotate(270) translate(0,3)" font-family="sans-serif" font-size="10px" fill="#000" opacity="1">2</text><text text-anchor="end" transform="translate(192.35714285714286,7) rotate(270) translate(0,3)" font-family="sans-serif" font-size="10px" fill="#000" opacity="1">3</text><text text-anchor="end" transform="translate(206.64285714285714,7) rotate(270) translate(0,3)" font-family="sans-serif" font-size="10px" fill="#000" opacity="1">4</text><text text-anchor="end" transform="translate(220.92857142857144,7) rotate(270) translate(0,3)" font-family="sans-serif" font-size="10px" fill="#000" opacity="1">5</text><text text-anchor="end" transform="translate(235.21428571428572,7) rotate(270) translate(0,3)" font-family="sans-serif" font-size="10px" fill="#000" opacity="1">6</text><text text-anchor="end" transform="translate(249.5,7) rotate(270) translate(0,3)" font-family="sans-serif" font-size="10px" fill="#000" opacity="1">7</text><text text-anchor="end" transform="translate(263.78571428571433,7) rotate(270) translate(0,3)" font-family="sans-serif" font-size="10px" fill="#000" opacity="1">8</text><text text-anchor="end" transform="translate(278.0714285714286,7) rotate(270) translate(0,3)" font-family="sans-serif" font-size="10px" fill="#000" opacity="1">9</text><text text-anchor="end" transform="translate(292.3571428571429,7) rotate(270) translate(0,3)" font-family="sans-serif" font-size="10px" fill="#000" opacity="1">10</text></g><g class="mark-rule role-axis-domain" pointer-events="none"><line transform="translate(0,0)" x2="300" y2="0" stroke="#888" stroke-width="1" opacity="1"/></g><g class="mark-text role-axis-title" pointer-events="none"><text text-anchor="middle" transform="translate(150,34.453125)" font-family="sans-serif" font-size="11px" font-weight="bold" fill="#000" opacity="1">Years since Democratization</text></g></g><path class="foreground" aria-hidden="true" d="" pointer-events="none" display="none"/></g></g><g class="mark-group role-axis" role="graphics-symbol" aria-roledescription="axis" aria-label="Y-axis titled 'Mean GDP growth per capita (2011 USD)' for a linear scale with values from −3 to 5"><g transform="translate(0.5,0.5)"><path class="background" aria-hidden="true" d="M0,0h0v0h0Z" pointer-events="none"/><g><g class="mark-rule role-axis-tick" pointer-events="none"><line transform="translate(0,232)" x2="-5" y2="0" stroke="#888" stroke-width="1" opacity="1"/><line transform="translate(0,196)" x2="-5" y2="0" stroke="#888" stroke-width="1" opacity="1"/><line transform="translate(0,161)" x2="-5" y2="0" stroke="#888" stroke-width="1" opacity="1"/><line transform="translate(0,125)" x2="-5" y2="0" stroke="#888" stroke-width="1" opacity="1"/><line transform="translate(0,89)" x2="-5" y2="0" stroke="#888" stroke-width="1" opacity="1"/><line transform="translate(0,54)" x2="-5" y2="0" stroke="#888" stroke-width="1" opacity="1"/><line transform="translate(0,18)" x2="-5" y2="0" stroke="#888" stroke-width="1" opacity="1"/></g><g class="mark-text role-axis-label" pointer-events="none"><text text-anchor="end" transform="translate(-7,235.14285714285714)" font-family="sans-serif" font-size="10px" fill="#000" opacity="1">−2</text><text text-anchor="end" transform="translate(-7,199.42857142857142)" font-family="sans-serif" font-size="10px" fill="#000" opacity="1">−1</text><text text-anchor="end" transform="translate(-7,163.7142857142857)" font-family="sans-serif" font-size="10px" fill="#000" opacity="1">0</text><text text-anchor="end" transform="translate(-7,128)" font-family="sans-serif" font-size="10px" fill="#000" opacity="1">1</text><text text-anchor="end" transform="translate(-7,92.28571428571428)" font-family="sans-serif" font-size="10px" fill="#000" opacity="1">2</text><text text-anchor="end" transform="translate(-7,56.57142857142858)" font-family="sans-serif" font-size="10px" fill="#000" opacity="1">3</text><text text-anchor="end" transform="translate(-7,20.85714285714285)" font-family="sans-serif" font-size="10px" fill="#000" opacity="1">4</text></g><g class="mark-rule role-axis-domain" pointer-events="none"><line transform="translate(0,250)" x2="0" y2="-250" stroke="#888" stroke-width="1" opacity="1"/></g><g class="mark-text role-axis-title" pointer-events="none"><text text-anchor="middle" transform="translate(-22.4013671875,125) rotate(-90) translate(0,-2)" font-family="sans-serif" font-size="11px" font-weight="bold" fill="#000" opacity="1">Mean GDP growth per capita (2011 USD)</text></g></g><path class="foreground" aria-hidden="true" d="" pointer-events="none" display="none"/></g></g><g class="mark-line role-mark concat_0_layer_0_marks" role="graphics-object" aria-roledescription="line mark container"><path aria-label="Years since Democratization: -10; Mean GDP growth per capita (2011 USD): 1.14204186363" role="graphics-symbol" aria-roledescription="line mark" d="M7.143,119.927L21.429,43.743L35.714,6.366L50,70.904L64.286,49.149L78.571,83.012L92.857,107.186L107.143,101.474L121.429,150.141L135.714,156.59L150,247.104" stroke="#A53F2B" stroke-width="2"/></g><g class="mark-symbol role-mark concat_0_layer_1_marks" role="graphics-object" aria-roledescription="symbol mark container"><path aria-label="Years since Democratization: -10; Mean GDP growth per capita (2011 USD): 1.14204186363" role="graphics-symbol" aria-roledescription="point" transform="translate(7.142857142857143,119.9270762988566)" d="M4.743,0A4.743,4.743,0,1,1,-4.743,0A4.743,4.743,0,1,1,4.743,0" fill="#A53F2B" stroke-width="2"/><path aria-label="Years since Democratization: -9; Mean GDP growth per capita (2011 USD): 3.27519366817" role="graphics-symbol" aria-roledescription="point" transform="translate(21.42857142857143,43.74308327976053)" d="M4.743,0A4.743,4.743,0,1,1,-4.743,0A4.743,4.743,0,1,1,4.743,0" fill="#A53F2B" stroke-width="2"/><path aria-label="Years since Democratization: -8; Mean GDP growth per capita (2011 USD): 4.32174561719" role="graphics-symbol" aria-roledescription="point" transform="translate(35.714285714285715,6.366227957640441)" d="M4.743,0A4.743,4.743,0,1,1,-4.743,0A4.743,4.743,0,1,1,4.743,0" fill="#A53F2B" stroke-width="2"/><path aria-label="Years since Democratization: -7; Mean GDP growth per capita (2011 USD): 2.5146775047" role="graphics-symbol" aria-roledescription="point" transform="translate(50.00000000000001,70.90437483227521)" d="M4.743,0A4.743,4.743,0,1,1,-4.743,0A4.743,4.743,0,1,1,4.743,0" fill="#A53F2B" stroke-width="2"/><path aria-label="Years since Democratization: -6; Mean GDP growth per capita (2011 USD): 3.12381951017" role="graphics-symbol" aria-roledescription="point" transform="translate(64.28571428571429,49.14930320838348)" d="M4.743,0A4.743,4.743,0,1,1,-4.743,0A4.743,4.743,0,1,1,4.743,0" fill="#A53F2B" stroke-width="2"/><path aria-label="Years since Democratization: -5; Mean GDP growth per capita (2011 USD): 2.17565191739" role="graphics-symbol" aria-roledescription="point" transform="translate(78.57142857142857,83.01243152165208)" d="M4.743,0A4.743,4.743,0,1,1,-4.743,0A4.743,4.743,0,1,1,4.743,0" fill="#A53F2B" stroke-width="2"/><path aria-label="Years since Democratization: -4; Mean GDP growth per capita (2011 USD): 1.49880129203" role="graphics-symbol" aria-roledescription="point" transform="translate(92.85714285714286,107.18566814190447)" d="M4.743,0A4.743,4.743,0,1,1,-4.743,0A4.743,4.743,0,1,1,4.743,0" fill="#A53F2B" stroke-width="2"/><path aria-label="Years since Democratization: -3; Mean GDP growth per capita (2011 USD): 1.65871472092" role="graphics-symbol" aria-roledescription="point" transform="translate(107.14285714285714,101.47447425287298)" d="M4.743,0A4.743,4.743,0,1,1,-4.743,0A4.743,4.743,0,1,1,4.743,0" fill="#A53F2B" stroke-width="2"/><path aria-label="Years since Democratization: -2; Mean GDP growth per capita (2011 USD): 0.296044204337" role="graphics-symbol" aria-roledescription="point" transform="translate(121.42857142857143,150.14127841654013)" d="M4.743,0A4.743,4.743,0,1,1,-4.743,0A4.743,4.743,0,1,1,4.743,0" fill="#A53F2B" stroke-width="2"/><path aria-label="Years since Democratization: -1; Mean GDP growth per capita (2011 USD): 0.11548566931" role="graphics-symbol" aria-roledescription="point" transform="translate(135.71428571428572,156.5897975246525)" d="M4.743,0A4.743,4.743,0,1,1,-4.743,0A4.743,4.743,0,1,1,4.743,0" fill="#A53F2B" stroke-width="2"/><path aria-label="Years since Democratization: 0; Mean GDP growth per capita (2011 USD): −2.41890713639" role="graphics-symbol" aria-roledescription="point" transform="translate(150,247.10382629948737)" d="M4.743,0A4.743,4.743,0,1,1,-4.743,0A4.743,4.743,0,1,1,4.743,0" fill="#A53F2B" stroke-width="2"/></g><g class="mark-line role-mark concat_0_layer_2_layer_0_marks" role="graphics-object" aria-roledescription="line mark container"><path aria-label="Years since Democratization: 0; Mean GDP growth per capita (2011 USD): −2.41890713639" role="graphics-symbol" aria-roledescription="line mark" d="M150,247.104L164.286,110.517L178.571,10.076L192.857,51.342L207.143,73.576L221.429,95.386L235.714,86.474L250,74.655L264.286,97.638L278.571,76.693L292.857,30.556" stroke="#04724D" stroke-width="2"/></g><g class="mark-symbol role-mark concat_0_layer_2_layer_1_marks" role="graphics-object" aria-roledescription="symbol mark container"><path aria-label="Years since Democratization: 0; Mean GDP growth per capita (2011 USD): −2.41890713639" role="graphics-symbol" aria-roledescription="point" transform="translate(150,247.10382629948737)" d="M4.743,0A4.743,4.743,0,1,1,-4.743,0A4.743,4.743,0,1,1,4.743,0" fill="#04724D" stroke-width="2"/><path aria-label="Years since Democratization: 1; Mean GDP growth per capita (2011 USD): 1.40552419721" role="graphics-symbol" aria-roledescription="point" transform="translate(164.28571428571428,110.51699295679023)" d="M4.743,0A4.743,4.743,0,1,1,-4.743,0A4.743,4.743,0,1,1,4.743,0" fill="#04724D" stroke-width="2"/><path aria-label="Years since Democratization: 2; Mean GDP growth per capita (2011 USD): 4.21785912204" role="graphics-symbol" aria-roledescription="point" transform="translate(178.57142857142858,10.076459927284453)" d="M4.743,0A4.743,4.743,0,1,1,-4.743,0A4.743,4.743,0,1,1,4.743,0" fill="#04724D" stroke-width="2"/><path aria-label="Years since Democratization: 3; Mean GDP growth per capita (2011 USD): 3.06242965343" role="graphics-symbol" aria-roledescription="point" transform="translate(192.85714285714286,51.341798091684545)" d="M4.743,0A4.743,4.743,0,1,1,-4.743,0A4.743,4.743,0,1,1,4.743,0" fill="#04724D" stroke-width="2"/><path aria-label="Years since Democratization: 4; Mean GDP growth per capita (2011 USD): 2.43985993471" role="graphics-symbol" aria-roledescription="point" transform="translate(207.14285714285714,73.57643090317026)" d="M4.743,0A4.743,4.743,0,1,1,-4.743,0A4.743,4.743,0,1,1,4.743,0" fill="#04724D" stroke-width="2"/><path aria-label="Years since Democratization: 5; Mean GDP growth per capita (2011 USD): 1.82918457166" role="graphics-symbol" aria-roledescription="point" transform="translate(221.42857142857144,95.38626529791492)" d="M4.743,0A4.743,4.743,0,1,1,-4.743,0A4.743,4.743,0,1,1,4.743,0" fill="#04724D" stroke-width="2"/><path aria-label="Years since Democratization: 6; Mean GDP growth per capita (2011 USD): 2.07873812639" role="graphics-symbol" aria-roledescription="point" transform="translate(235.71428571428572,86.47363834336558)" d="M4.743,0A4.743,4.743,0,1,1,-4.743,0A4.743,4.743,0,1,1,4.743,0" fill="#04724D" stroke-width="2"/><path aria-label="Years since Democratization: 7; Mean GDP growth per capita (2011 USD): 2.40965845002" role="graphics-symbol" aria-roledescription="point" transform="translate(250,74.65505535632919)" d="M4.743,0A4.743,4.743,0,1,1,-4.743,0A4.743,4.743,0,1,1,4.743,0" fill="#04724D" stroke-width="2"/><path aria-label="Years since Democratization: 8; Mean GDP growth per capita (2011 USD): 1.76614670643" role="graphics-symbol" aria-roledescription="point" transform="translate(264.28571428571433,97.63761762755915)" d="M4.743,0A4.743,4.743,0,1,1,-4.743,0A4.743,4.743,0,1,1,4.743,0" fill="#04724D" stroke-width="2"/><path aria-label="Years since Democratization: 9; Mean GDP growth per capita (2011 USD): 2.3525890475" role="graphics-symbol" aria-roledescription="point" transform="translate(278.5714285714286,76.69324830374796)" d="M4.743,0A4.743,4.743,0,1,1,-4.743,0A4.743,4.743,0,1,1,4.743,0" fill="#04724D" stroke-width="2"/><path aria-label="Years since Democratization: 10; Mean GDP growth per capita (2011 USD): 3.64441843961" role="graphics-symbol" aria-roledescription="point" transform="translate(292.8571428571429,30.55648429973676)" d="M4.743,0A4.743,4.743,0,1,1,-4.743,0A4.743,4.743,0,1,1,4.743,0" fill="#04724D" stroke-width="2"/></g><g class="mark-rule role-mark concat_0_layer_3_marks" role="graphics-object" aria-roledescription="rule mark container"><line aria-label="x: 0" role="graphics-symbol" aria-roledescription="rule mark" transform="translate(150,0)" x2="0" y2="250" stroke="#000000" stroke-width="1" stroke-dasharray="5,5"/></g></g><path class="foreground" aria-hidden="true" d="" display="none"/></g></g><g class="mark-group role-scope concat_1_group" role="graphics-object" aria-roledescription="group mark container"><g transform="translate(0,292)"><path class="background" aria-hidden="true" d="M0,0h10v20h-10Z"/><g><g class="mark-text role-mark concat_1_marks" role="graphics-object" aria-roledescription="text mark container"><text aria-label="text: Source: Center for Systemic Peace (2018) and Bolt &amp; Van Zanden (2024)" role="graphics-symbol" aria-roledescription="text mark" text-anchor="start" transform="translate(5,13)" font-family="sans-serif " font-size="10px" font-weight="normal" fill="gray">Source: Center for Systemic Peace (2018) and Bolt &amp; Van Zanden (2024)</text></g></g><path class="foreground" aria-hidden="true" d="" display="none"/></g></g></g><path class="foreground" aria-hidden="true" d="" display="none"/></g></g></g></svg>